<!DOCTYPE svg PUBLIC "-//W3C//DTD SVG 1.1//EN" "http://www.w3.org/Graphics/SVG/1.1/DTD/svg11.dtd"><svg viewBox="0 0 24 24" xmlns="http://www.w3.org/2000/svg"><defs><style><![CDATA[ .sprite { display: none; &:target { display: inline; } } ]]></style></defs><g class="sprite" id="account-circle-icon"><g><rect fill="none" height="24" width="24"/></g><g><path d="M12 2C6.48 2 2 6.48 2 12s4.48 10 10 10 10-4.48 10-10S17.52 2 12 2zm0 4c1.93 0 3.5 1.57 3.5 3.5S13.93 13 12 13s-3.5-1.57-3.5-3.5S10.07 6 12 6zm0 14c-2.03 0-4.43-.82-6.14-2.88C7.55 15.8 9.68 15 12 15s4.45.8 6.14 2.12C16.43 19.18 14.03 20 12 20z"/></g></g><g class="sprite" id="javascript-icon"><g><rect fill="none" height="24" width="24"/></g><g><path d="M12,14v-1h1.5v0.5h2v-1H13c-0.55,0-1-0.45-1-1V10c0-0.55,0.45-1,1-1h3c0.55,0,1,0.45,1,1v1h-1.5v-0.5h-2v1H16 c0.55,0,1,0.45,1,1V14c0,0.55-0.45,1-1,1h-3C12.45,15,12,14.55,12,14z M9,9v4.5H7.5v-1H6v1C6,14.33,6.67,15,7.5,15H9 c0.83,0,1.5-0.67,1.5-1.5V9C10.5,9,9.83,9,9,9z"/></g></g></svg>