<!DOCTYPE svg PUBLIC "-//W3C//DTD SVG 1.1//EN" "http://www.w3.org/Graphics/SVG/1.1/DTD/svg11.dtd">
<svg viewBox="0 0 24 24" xmlns="http://www.w3.org/2000/svg">
    <defs>
        <style>
            <![CDATA[
            .sprite {
                display: none;

                &:target {
                    display: inline;
                }
            }

            .sun-and-moon {
                &> :is(.moon, .sun, .sun-beams) {
                    transform-origin: center center;
                }

                &> :is(.moon, .sun) {
                    fill: var(--color-active);
                }

                &>.sun-beams {
                    stroke: var(--color-active);
                    stroke-width: 0.125rem;
                }

                .sprite:is(:focus-visible)>& {
                    &> :is(.moon, .sun, .sun-beams) {
                        fill: var(--icon-fill-focus);
                    }
                }

                [data-theme="dark"] & {
                    &>.moon>circle {
                        transform: translateX(-0.4375rem);
                    }

                    &>.sun-beams {
                        opacity: 0;
                    }

                    &>.sun {
                        transform: scale(1.75);
                    }
                }
            }
            ]]>
        </style>
    </defs>
    <g class="sprite" id="account-circle-icon">
        <g>
            <rect fill="none" height="24" width="24" />
        </g>
        <g>
            <g>
                <path
                    d="M12 2C6.48 2 2 6.48 2 12s4.48 10 10 10 10-4.48 10-10S17.52 2 12 2zM7.35 18.5C8.66 17.56 10.26 17 12 17s3.34.56 4.65 1.5c-1.31.94-2.91 1.5-4.65 1.5s-3.34-.56-4.65-1.5zm10.79-1.38C16.45 15.8 14.32 15 12 15s-4.45.8-6.14 2.12C4.7 15.73 4 13.95 4 12c0-4.42 3.58-8 8-8s8 3.58 8 8c0 1.95-.7 3.73-1.86 5.12z" />
                <path
                    d="M12 6c-1.93 0-3.5 1.57-3.5 3.5S10.07 13 12 13s3.5-1.57 3.5-3.5S13.93 6 12 6zm0 5c-.83 0-1.5-.67-1.5-1.5S11.17 8 12 8s1.5.67 1.5 1.5S12.83 11 12 11z" />
            </g>
        </g>
    </g>
    <g class="sprite" id="apps-icon">
        <path d="M0 0h24v24H0V0z" fill="none" />
        <path
            d="M4 8h4V4H4v4zm6 12h4v-4h-4v4zm-6 0h4v-4H4v4zm0-6h4v-4H4v4zm6 0h4v-4h-4v4zm6-10v4h4V4h-4zm-6 4h4V4h-4v4zm6 6h4v-4h-4v4zm0 6h4v-4h-4v4z" />
    </g>
    <g class="sprite" id="arrow-drop-down-icon">
        <path d="M0 0h24v24H0V0z" fill="none" />
        <path d="M7 10l5 5 5-5H7z" />
    </g>
    <g class="sprite" id="article-icon">
        <g>
            <rect fill="none" height="24" width="24" />
            <g>
                <path
                    d="M19,5v14H5V5H19 M19,3H5C3.9,3,3,3.9,3,5v14c0,1.1,0.9,2,2,2h14c1.1,0,2-0.9,2-2V5C21,3.9,20.1,3,19,3L19,3z" />
            </g>
            <path d="M14,17H7v-2h7V17z M17,13H7v-2h10V13z M17,9H7V7h10V9z" />
        </g>
    </g>
    <g class="sprite" id="cloud-off-icon">
        <path d="M0 0h24v24H0V0z" fill="none" />
        <path
            d="M24 15c0-2.64-2.05-4.78-4.65-4.96C18.67 6.59 15.64 4 12 4c-1.33 0-2.57.36-3.65.97l1.49 1.49C10.51 6.17 11.23 6 12 6c3.04 0 5.5 2.46 5.5 5.5v.5H19c1.66 0 3 1.34 3 3 0 .99-.48 1.85-1.21 2.4l1.41 1.41c1.09-.92 1.8-2.27 1.8-3.81zM4.41 3.86L3 5.27l2.77 2.77h-.42C2.34 8.36 0 10.91 0 14c0 3.31 2.69 6 6 6h11.73l2 2 1.41-1.41L4.41 3.86zM6 18c-2.21 0-4-1.79-4-4s1.79-4 4-4h1.73l8 8H6z" />
    </g>
    <g class="sprite" id="expand-more-icon">
        <path d="M24 24H0V0h24v24z" fill="none" />
        <path d="M16.59 8.59L12 13.17 7.41 8.59 6 10l6 6 6-6-1.41-1.41z" />
    </g>
    <g class="sprite" id="javascript-icon">
        <g>
            <rect fill="none" height="24" width="24" />
        </g>
        <g>
            <path
                d="M12,14v-1h1.5v0.5h2v-1H13c-0.55,0-1-0.45-1-1V10c0-0.55,0.45-1,1-1h3c0.55,0,1,0.45,1,1v1h-1.5v-0.5h-2v1H16 c0.55,0,1,0.45,1,1V14c0,0.55-0.45,1-1,1h-3C12.45,15,12,14.55,12,14z M9,9v4.5H7.5v-1H6v1C6,14.33,6.67,15,7.5,15H9 c0.83,0,1.5-0.67,1.5-1.5V9C10.5,9,9.83,9,9,9z" />
        </g>
    </g>
    <g class="sprite" id="menu-icon">
        <path d="M0 0h24v24H0V0z" fill="none" />
        <path d="M3 18h18v-2H3v2zm0-5h18v-2H3v2zm0-7v2h18V6H3z" />
    </g>
    <g class="sprite sun-and-moon" id="theme-toggle-icon">
        <circle class="sun" cx="12" cy="12" fill="currentColor" mask="url(#moon-mask)" r="6" />
        <g class="sun-beams" stroke="currentColor">
            <line x1="12" x2="12" y1="1" y2="3" />
            <line x1="12" x2="12" y1="21" y2="23" />
            <line x1="4.22" x2="5.64" y1="4.22" y2="5.64" />
            <line x1="18.36" x2="19.78" y1="18.36" y2="19.78" />
            <line x1="1" x2="3" y1="12" y2="12" />
            <line x1="21" x2="23" y1="12" y2="12" />
            <line x1="4.22" x2="5.64" y1="19.78" y2="18.36" />
            <line x1="18.36" x2="19.78" y1="5.64" y2="4.22" />
        </g>
    </g>
</svg>