<!DOCTYPE svg PUBLIC "-//W3C//DTD SVG 1.1//EN" "http://www.w3.org/Graphics/SVG/1.1/DTD/svg11.dtd">
<svg viewBox="0 0 24 24" xmlns="http://www.w3.org/2000/svg">
    <defs>
        <style>
            <![CDATA[
            .sprite {
                display: none;
                --icon-fill: hsl(210 10% 30%);
                --icon-fill-hover: hsl(210 10% 15%);

                &:target {
                    display: inline;
                }

                [data-theme=dark] & {
                    --icon-fill: hsl(210 10% 70%);
                    --icon-fill-hover: hsl(210 15% 90%);
                }
            }

            .sun-and-moon {
                &> :is(.moon, .sun, .sun-beams) {
                    transform-origin: center center;
                }

                &> :is(.moon, .sun) {
                    fill: var(--icon-fill);
                }

                &>.sun-beams {
                    stroke: var(--icon-fill);
                    stroke-width: 0.125rem;
                }

                .sprite:is(:hover, :focus-visible)>& {
                    &> :is(.moon, .sun, .sun-beams) {
                        fill: var(--icon-fill-hover);
                    }
                }

                [data-theme="dark"] & {
                    &>.moon>circle {
                        transform: translateX(-0.4375rem);
                    }

                    &>.sun-beams {
                        opacity: 0;
                    }

                    &>.sun {
                        transform: scale(1.75);
                    }
                }
            }
            ]]>
        </style>
    </defs>
    <g class="sprite" id="menu">
        <path d="M0 0h24v24H0V0z" fill="none" />
        <path d="M3 18h18v-2H3v2zm0-5h18v-2H3v2zm0-7v2h18V6H3z" />
    </g>
    <g class="sprite" id="semesta">
        <path
            d="M 11.710938 1.054688 L 12.085938 1.054688 L 12.472656 1.066406 L 12.988281 1.101562 L 13.363281 1.148438 L 13.925781 1.230469 L 14.394531 1.324219 L 14.910156 1.453125 L 15.34375 1.585938 L 15.683594 1.703125 L 16.082031 1.855469 L 16.386719 1.984375 L 16.691406 2.125 L 16.867188 2.21875 L 17.054688 2.316406 L 17.324219 2.457031 L 17.523438 2.574219 L 17.769531 2.726562 L 17.992188 2.878906 L 18.128906 2.976562 L 18.328125 3.117188 L 18.503906 3.246094 L 18.691406 3.386719 L 18.890625 3.539062 L 19.042969 3.671875 L 19.171875 3.777344 L 19.324219 3.917969 L 19.464844 4.046875 L 20.003906 4.589844 L 20.085938 4.683594 L 20.203125 4.8125 L 20.308594 4.941406 L 20.4375 5.097656 L 20.554688 5.25 L 20.683594 5.414062 L 20.835938 5.625 L 21.023438 5.898438 L 21.210938 6.191406 L 21.386719 6.488281 L 21.527344 6.734375 L 21.726562 7.113281 L 21.890625 7.453125 L 22.066406 7.867188 L 22.230469 8.300781 L 22.371094 8.726562 L 22.488281 9.125 L 22.605469 9.609375 L 22.675781 9.976562 L 22.757812 10.46875 L 22.816406 10.988281 L 22.851562 11.390625 L 22.863281 11.589844 L 22.863281 12.496094 L 22.839844 12.851562 L 22.78125 13.453125 L 22.710938 13.875 L 22.628906 14.3125 L 22.488281 14.878906 L 22.347656 15.351562 L 22.277344 15.5625 L 22.148438 15.914062 L 21.984375 16.316406 L 21.84375 16.621094 L 21.679688 16.964844 L 21.5625 17.1875 L 21.410156 17.460938 L 21.257812 17.707031 L 21.152344 17.871094 L 20.917969 18.226562 L 20.636719 18.601562 L 20.472656 18.816406 L 20.34375 18.96875 L 20.261719 19.0625 L 20.121094 19.226562 L 19.96875 19.402344 L 19.78125 19.605469 L 19.699219 19.699219 L 19.605469 19.78125 L 19.429688 19.957031 L 19.335938 20.039062 L 19.207031 20.160156 L 19.078125 20.265625 L 18.9375 20.394531 L 18.820312 20.488281 L 18.65625 20.617188 L 18.503906 20.734375 L 18.28125 20.890625 L 18.175781 20.972656 L 18.003906 21.089844 L 17.78125 21.230469 L 17.628906 21.324219 L 17.335938 21.5 L 17.03125 21.667969 L 16.726562 21.820312 L 16.339844 21.996094 L 16.117188 22.089844 L 15.753906 22.234375 L 15.320312 22.386719 L 14.898438 22.515625 L 14.265625 22.667969 L 13.574219 22.796875 L 13.128906 22.855469 L 12.742188 22.894531 L 12.273438 22.917969 L 11.382812 22.917969 L 11.03125 22.894531 L 10.457031 22.820312 L 10.011719 22.75 L 9.507812 22.644531 L 9.214844 22.574219 L 8.792969 22.457031 L 8.289062 22.292969 L 7.890625 22.136719 L 7.5625 21.996094 L 7.257812 21.855469 L 6.964844 21.714844 L 6.683594 21.574219 L 6.402344 21.40625 L 6.191406 21.277344 L 5.921875 21.101562 L 5.628906 20.902344 L 5.453125 20.769531 L 5.3125 20.664062 L 5.101562 20.5 L 4.949219 20.371094 L 4.820312 20.265625 L 4.65625 20.121094 L 4.515625 19.992188 L 4.011719 19.488281 L 3.929688 19.390625 L 3.753906 19.203125 L 3.648438 19.085938 L 3.542969 18.957031 L 3.378906 18.757812 L 3.203125 18.519531 L 3.074219 18.34375 L 2.945312 18.15625 L 2.828125 17.976562 L 2.652344 17.695312 L 2.464844 17.375 L 2.347656 17.164062 L 2.183594 16.847656 L 2.089844 16.65625 L 1.9375 16.328125 L 1.808594 16.011719 L 1.679688 15.667969 L 1.539062 15.242188 L 1.421875 14.832031 L 1.328125 14.441406 L 1.222656 13.921875 L 1.152344 13.476562 L 1.09375 12.992188 L 1.0625 12.519531 L 1.050781 12.296875 L 1.050781 11.449219 L 1.105469 10.742188 L 1.164062 10.292969 L 1.257812 9.773438 L 1.339844 9.433594 L 1.457031 8.972656 L 1.609375 8.492188 L 1.738281 8.136719 L 1.902344 7.734375 L 2.042969 7.417969 L 2.183594 7.125 L 2.300781 6.898438 L 2.464844 6.59375 L 2.558594 6.441406 L 2.699219 6.203125 L 2.980469 5.78125 L 3.121094 5.578125 L 3.273438 5.367188 L 3.367188 5.25 L 3.496094 5.097656 L 3.707031 4.835938 L 3.824219 4.707031 L 3.929688 4.578125 L 4.621094 3.882812 L 4.75 3.777344 L 4.855469 3.683594 L 5.113281 3.46875 L 5.300781 3.316406 L 5.441406 3.210938 L 5.675781 3.046875 L 6.132812 2.738281 L 6.285156 2.644531 L 6.507812 2.515625 L 6.847656 2.328125 L 7.433594 2.03125 L 7.691406 1.914062 L 7.996094 1.796875 L 8.757812 1.535156 L 9.296875 1.382812 L 9.601562 1.3125 L 10.105469 1.21875 L 10.773438 1.125 L 11.265625 1.078125 Z M 11.828125 1.738281 L 11.3125 1.761719 L 10.832031 1.808594 L 10.445312 1.867188 L 10.046875 1.949219 L 9.671875 2.042969 L 9.097656 2.21875 L 8.757812 2.351562 L 8.441406 2.492188 L 8.160156 2.621094 L 7.9375 2.738281 L 7.65625 2.914062 L 7.46875 3.046875 L 7.304688 3.175781 L 7.117188 3.328125 L 6.964844 3.457031 L 6.8125 3.597656 L 6.648438 3.765625 L 6.566406 3.859375 L 6.414062 4.046875 L 6.296875 4.222656 L 6.179688 4.390625 L 6.039062 4.625 L 5.898438 4.871094 L 5.78125 5.121094 L 5.628906 5.472656 L 5.488281 5.886719 L 5.488281 5.910156 L 5.546875 5.886719 L 5.546875 5.863281 L 5.59375 5.839844 L 5.699219 5.722656 L 5.792969 5.601562 L 5.921875 5.449219 L 6.003906 5.355469 L 6.238281 5.121094 L 6.367188 5.015625 L 6.554688 4.859375 L 6.742188 4.71875 L 6.988281 4.554688 L 7.222656 4.414062 L 7.457031 4.28125 L 7.820312 4.117188 L 8.230469 3.964844 L 8.605469 3.847656 L 8.886719 3.777344 L 9.390625 3.683594 L 9.707031 3.632812 L 9.90625 3.621094 L 10.011719 3.585938 L 10.082031 3.539062 L 10.316406 3.304688 L 10.410156 3.222656 L 10.5625 3.09375 L 10.761719 2.9375 L 10.9375 2.808594 L 11.113281 2.691406 L 11.335938 2.550781 L 11.652344 2.375 L 11.945312 2.230469 L 12.34375 2.066406 L 12.636719 1.972656 L 12.90625 1.902344 L 13.09375 1.855469 L 13.117188 1.84375 L 13.117188 1.820312 L 13.035156 1.796875 L 12.859375 1.773438 L 12.460938 1.75 L 12.203125 1.738281 Z M 14.089844 2.410156 L 13.726562 2.433594 L 13.457031 2.46875 L 13.058594 2.550781 L 12.824219 2.621094 L 12.414062 2.761719 L 12.132812 2.878906 L 11.910156 2.988281 L 11.6875 3.105469 L 11.652344 3.140625 L 11.816406 3.128906 L 12.214844 3.082031 L 12.660156 3.082031 L 13.09375 3.117188 L 13.597656 3.199219 L 13.914062 3.269531 L 14.230469 3.363281 L 14.546875 3.480469 L 14.792969 3.585938 L 15.085938 3.730469 L 15.425781 3.90625 L 15.742188 4.09375 L 15.929688 4.222656 L 16.117188 4.367188 L 16.28125 4.496094 L 16.433594 4.613281 L 16.539062 4.671875 L 16.632812 4.683594 L 16.820312 4.683594 L 17.171875 4.707031 L 17.664062 4.765625 L 18.003906 4.824219 L 18.328125 4.90625 L 18.632812 5 L 19.007812 5.144531 L 19.242188 5.25 L 19.429688 5.34375 L 19.6875 5.484375 L 19.910156 5.625 L 19.957031 5.636719 L 19.945312 5.589844 L 19.851562 5.460938 L 19.6875 5.285156 L 19.558594 5.144531 L 19.453125 5.015625 L 19.265625 4.8125 L 19.066406 4.613281 L 18.972656 4.53125 L 18.785156 4.355469 L 18.65625 4.246094 L 18.539062 4.140625 L 18.386719 4.023438 L 18.246094 3.917969 L 18.015625 3.753906 L 17.664062 3.515625 L 17.429688 3.375 L 17.183594 3.234375 L 16.773438 3.023438 L 16.375 2.84375 L 16.058594 2.726562 L 15.765625 2.632812 L 15.320312 2.527344 L 14.910156 2.457031 L 14.546875 2.421875 L 14.3125 2.410156 Z M 12.414062 3.753906 L 12.097656 3.777344 L 11.746094 3.835938 L 11.464844 3.90625 L 11.160156 4.011719 L 10.867188 4.152344 L 10.621094 4.292969 L 10.421875 4.425781 L 10.257812 4.542969 L 10.070312 4.695312 L 9.953125 4.800781 L 9.917969 4.824219 L 9.917969 4.847656 L 9.882812 4.859375 L 9.753906 5.039062 L 9.601562 5.296875 L 9.4375 5.613281 L 9.320312 5.886719 L 9.214844 6.167969 L 9.097656 6.523438 L 9.015625 6.839844 L 8.910156 7.371094 L 8.886719 7.582031 L 8.921875 7.6875 L 9.003906 7.785156 L 9.121094 7.949219 L 9.167969 8.042969 L 9.203125 8.160156 L 9.203125 8.394531 L 9.144531 8.5625 L 9.027344 8.75 L 8.980469 8.796875 L 8.980469 8.820312 L 8.933594 8.84375 L 8.828125 8.914062 L 8.699219 8.960938 L 8.570312 8.984375 L 8.335938 8.984375 L 8.148438 8.925781 L 8.019531 8.84375 L 7.925781 8.75 L 7.84375 8.621094 L 7.796875 8.527344 L 7.75 8.335938 L 7.75 8.21875 L 7.808594 8.019531 L 7.878906 7.878906 L 8.007812 7.722656 L 8.171875 7.617188 L 8.207031 7.570312 L 8.230469 7.5 L 8.289062 7.050781 L 8.382812 6.628906 L 8.464844 6.332031 L 8.605469 5.898438 L 8.734375 5.566406 L 8.839844 5.332031 L 8.980469 5.039062 L 9.085938 4.847656 L 9.191406 4.671875 L 9.273438 4.542969 L 9.34375 4.4375 L 9.378906 4.367188 L 9.378906 4.332031 L 9.273438 4.34375 L 8.816406 4.460938 L 8.394531 4.601562 L 8.089844 4.71875 L 7.75 4.871094 L 7.492188 5.015625 L 7.339844 5.109375 L 7.164062 5.226562 L 7 5.34375 L 6.742188 5.554688 L 6.589844 5.710938 L 6.507812 5.78125 L 6.425781 5.875 L 6.296875 6.027344 L 6.144531 6.238281 L 6.050781 6.367188 L 5.921875 6.59375 L 5.769531 6.910156 L 5.652344 7.21875 L 5.558594 7.570312 L 5.5 7.878906 L 5.453125 8.300781 L 5.453125 8.429688 L 5.488281 8.632812 L 5.558594 8.902344 L 5.699219 9.316406 L 5.839844 9.65625 L 6.003906 10 L 6.121094 10.222656 L 6.308594 10.53125 L 6.390625 10.648438 L 6.507812 10.824219 L 6.660156 11.023438 L 6.753906 11.09375 L 6.847656 11.105469 L 7.023438 11.117188 L 7.199219 11.175781 L 7.339844 11.273438 L 7.46875 11.402344 L 7.550781 11.542969 L 7.597656 11.683594 L 7.609375 11.742188 L 7.609375 11.886719 L 7.574219 12.039062 L 7.492188 12.191406 L 7.410156 12.296875 L 7.304688 12.402344 L 7.164062 12.484375 L 6.976562 12.53125 L 6.742188 12.53125 L 6.613281 12.496094 L 6.472656 12.425781 L 6.332031 12.296875 L 6.226562 12.132812 L 6.15625 11.921875 L 6.144531 11.871094 L 6.144531 11.777344 L 6.179688 11.660156 L 6.226562 11.554688 L 6.203125 11.496094 L 6.097656 11.367188 L 5.957031 11.1875 L 5.804688 10.964844 L 5.652344 10.730469 L 5.511719 10.492188 L 5.359375 10.210938 L 5.21875 9.90625 L 5.089844 9.585938 L 4.949219 9.175781 L 4.820312 8.703125 L 4.761719 8.429688 L 4.714844 8.429688 L 4.574219 8.644531 L 4.46875 8.832031 L 4.304688 9.140625 L 4.164062 9.433594 L 4.035156 9.761719 L 3.90625 10.152344 L 3.800781 10.578125 L 3.753906 10.882812 L 3.730469 11.226562 L 3.730469 11.53125 L 3.753906 11.835938 L 3.800781 12.121094 L 3.882812 12.425781 L 3.976562 12.710938 L 4.117188 13.027344 L 4.257812 13.289062 L 4.410156 13.511719 L 4.5625 13.722656 L 4.714844 13.910156 L 4.796875 14.007812 L 4.914062 14.125 L 5.066406 14.230469 L 5.3125 14.371094 L 5.640625 14.535156 L 5.910156 14.65625 L 6.238281 14.773438 L 6.648438 14.890625 L 6.953125 14.960938 L 7.363281 15.03125 L 7.609375 15.066406 L 7.703125 14.996094 L 7.808594 14.902344 L 7.960938 14.808594 L 8.089844 14.761719 L 8.160156 14.75 L 8.324219 14.75 L 8.523438 14.796875 L 8.664062 14.867188 L 8.769531 14.949219 L 8.863281 15.066406 L 8.945312 15.230469 L 8.980469 15.363281 L 8.980469 15.550781 L 8.945312 15.691406 L 8.839844 15.878906 L 8.757812 15.984375 L 8.628906 16.082031 L 8.464844 16.152344 L 8.347656 16.1875 L 8.171875 16.1875 L 8.03125 16.152344 L 7.84375 16.058594 L 7.726562 15.960938 L 7.644531 15.867188 L 7.574219 15.75 L 7.550781 15.726562 L 7.410156 15.714844 L 7.304688 15.703125 L 6.882812 15.632812 L 6.460938 15.539062 L 6.109375 15.433594 L 5.710938 15.289062 L 5.40625 15.160156 L 4.996094 14.960938 L 4.726562 14.808594 L 4.480469 14.65625 L 4.316406 14.570312 L 4.363281 14.785156 L 4.480469 15.195312 L 4.574219 15.515625 L 4.703125 15.84375 L 4.855469 16.175781 L 5.019531 16.480469 L 5.183594 16.742188 L 5.300781 16.90625 L 5.382812 17.011719 L 5.523438 17.175781 L 5.664062 17.328125 L 5.839844 17.507812 L 5.96875 17.613281 L 6.074219 17.707031 L 6.261719 17.835938 L 6.4375 17.941406 L 6.777344 18.121094 L 6.976562 18.214844 L 7.292969 18.332031 L 7.644531 18.414062 L 8.066406 18.484375 L 8.253906 18.496094 L 8.453125 18.496094 L 8.628906 18.460938 L 8.992188 18.355469 L 9.226562 18.273438 L 9.566406 18.132812 L 9.777344 18.035156 L 10.082031 17.882812 L 10.398438 17.695312 L 10.621094 17.554688 L 10.808594 17.425781 L 10.972656 17.304688 L 11.066406 17.234375 L 11.089844 17.1875 L 11.089844 17.09375 L 11.078125 17.023438 L 11.078125 16.929688 L 11.125 16.800781 L 11.21875 16.632812 L 11.300781 16.539062 L 11.394531 16.46875 L 11.511719 16.410156 L 11.675781 16.363281 L 11.839844 16.351562 L 12.039062 16.386719 L 12.179688 16.445312 L 12.308594 16.539062 L 12.402344 16.644531 L 12.496094 16.835938 L 12.53125 16.953125 L 12.542969 17.09375 L 12.507812 17.269531 L 12.414062 17.472656 L 12.320312 17.589844 L 12.214844 17.683594 L 12.027344 17.765625 L 11.933594 17.789062 L 11.757812 17.800781 L 11.59375 17.765625 L 11.488281 17.765625 L 11.359375 17.859375 L 11.195312 17.988281 L 11.042969 18.097656 L 10.820312 18.238281 L 10.5625 18.390625 L 10.175781 18.589844 L 9.882812 18.730469 L 9.566406 18.863281 L 9.238281 18.980469 L 8.933594 19.074219 L 8.6875 19.132812 L 8.546875 19.15625 L 8.371094 19.191406 L 8.429688 19.25 L 8.546875 19.332031 L 8.722656 19.425781 L 8.875 19.523438 L 9.121094 19.652344 L 9.449219 19.804688 L 9.707031 19.910156 L 10.082031 20.027344 L 10.457031 20.121094 L 10.761719 20.183594 L 11.066406 20.21875 L 11.242188 20.230469 L 11.394531 20.230469 L 11.746094 20.207031 L 12.015625 20.171875 L 12.296875 20.097656 L 12.683594 19.96875 L 12.90625 19.875 L 13.175781 19.746094 L 13.410156 19.605469 L 13.574219 19.488281 L 13.714844 19.378906 L 13.914062 19.214844 L 14.066406 19.074219 L 14.160156 18.957031 L 14.3125 18.695312 L 14.476562 18.378906 L 14.605469 18.085938 L 14.734375 17.742188 L 14.851562 17.351562 L 14.957031 16.894531 L 15.027344 16.492188 L 15.039062 16.398438 L 15.039062 16.292969 L 14.875 16.128906 L 14.78125 15.972656 L 14.734375 15.855469 L 14.722656 15.808594 L 14.722656 15.609375 L 14.78125 15.421875 L 14.875 15.253906 L 14.980469 15.136719 L 15.132812 15.042969 L 15.25 14.996094 L 15.308594 14.984375 L 15.566406 14.984375 L 15.742188 15.03125 L 15.871094 15.101562 L 15.988281 15.207031 L 16.082031 15.339844 L 16.152344 15.503906 L 16.175781 15.597656 L 16.175781 15.773438 L 16.128906 15.9375 L 16.035156 16.117188 L 15.941406 16.234375 L 15.847656 16.304688 L 15.753906 16.363281 L 15.695312 16.410156 L 15.695312 16.585938 L 15.613281 17.011719 L 15.53125 17.375 L 15.378906 17.894531 L 15.25 18.261719 L 15.097656 18.613281 L 14.933594 18.957031 L 14.804688 19.179688 L 14.699219 19.355469 L 14.546875 19.59375 L 14.546875 19.617188 L 14.6875 19.605469 L 14.886719 19.558594 L 15.238281 19.464844 L 15.660156 19.320312 L 16.023438 19.167969 L 16.351562 19.003906 L 16.585938 18.863281 L 16.785156 18.730469 L 16.925781 18.625 L 17.054688 18.519531 L 17.21875 18.378906 L 17.394531 18.214844 L 17.511719 18.097656 L 17.640625 17.929688 L 17.792969 17.730469 L 17.910156 17.554688 L 18.003906 17.402344 L 18.128906 17.128906 L 18.269531 16.765625 L 18.351562 16.46875 L 18.410156 16.164062 L 18.445312 15.867188 L 18.457031 15.714844 L 18.457031 15.46875 L 18.386719 15.160156 L 18.292969 14.855469 L 18.210938 14.617188 L 18.082031 14.3125 L 17.921875 13.972656 L 17.792969 13.734375 L 17.628906 13.464844 L 17.40625 13.132812 L 17.289062 12.980469 L 17.207031 12.886719 L 17.183594 12.875 L 16.902344 12.851562 L 16.726562 12.792969 L 16.621094 12.722656 L 16.527344 12.640625 L 16.445312 12.519531 L 16.363281 12.355469 L 16.328125 12.226562 L 16.328125 12.015625 L 16.363281 11.886719 L 16.457031 11.71875 L 16.550781 11.613281 L 16.667969 11.53125 L 16.808594 11.460938 L 16.890625 11.4375 L 17.066406 11.425781 L 17.289062 11.460938 L 17.394531 11.507812 L 17.511719 11.578125 L 17.605469 11.671875 L 17.699219 11.824219 L 17.757812 11.980469 L 17.78125 12.085938 L 17.78125 12.179688 L 17.722656 12.390625 L 17.734375 12.472656 L 17.851562 12.605469 L 17.945312 12.734375 L 18.082031 12.933594 L 18.210938 13.132812 L 18.339844 13.347656 L 18.492188 13.628906 L 18.621094 13.886719 L 18.75 14.183594 L 18.914062 14.628906 L 19.019531 14.984375 L 19.101562 15.289062 L 19.148438 15.492188 L 19.195312 15.539062 L 19.277344 15.445312 L 19.429688 15.171875 L 19.59375 14.867188 L 19.722656 14.617188 L 19.851562 14.3125 L 19.96875 13.972656 L 20.039062 13.722656 L 20.109375 13.417969 L 20.167969 13.039062 L 20.191406 12.699219 L 20.191406 12.554688 L 20.167969 12.167969 L 20.085938 11.695312 L 19.980469 11.34375 L 19.875 11.09375 L 19.757812 10.847656 L 19.617188 10.601562 L 19.5 10.421875 L 19.382812 10.257812 L 19.265625 10.105469 L 19.125 9.953125 L 19.042969 9.871094 L 18.890625 9.761719 L 18.644531 9.621094 L 18.292969 9.445312 L 18.027344 9.328125 L 17.734375 9.222656 L 17.429688 9.125 L 17.054688 9.03125 L 16.632812 8.949219 L 16.328125 8.902344 L 16.234375 8.949219 L 16.140625 9.042969 L 15.976562 9.140625 L 15.835938 9.199219 L 15.730469 9.222656 L 15.554688 9.210938 L 15.425781 9.175781 L 15.261719 9.089844 L 15.109375 8.949219 L 15.027344 8.820312 L 14.96875 8.679688 L 14.945312 8.585938 L 14.945312 8.394531 L 14.980469 8.265625 L 15.039062 8.125 L 15.132812 7.996094 L 15.226562 7.914062 L 15.414062 7.820312 L 15.53125 7.785156 L 15.800781 7.785156 L 15.988281 7.84375 L 16.128906 7.925781 L 16.222656 8.019531 L 16.339844 8.195312 L 16.375 8.242188 L 16.492188 8.265625 L 16.773438 8.300781 L 17.171875 8.371094 L 17.476562 8.441406 L 17.839844 8.550781 L 18.292969 8.714844 L 18.632812 8.867188 L 19.019531 9.066406 L 19.230469 9.1875 L 19.40625 9.304688 L 19.570312 9.410156 L 19.59375 9.410156 L 19.535156 9.113281 L 19.453125 8.808594 L 19.265625 8.230469 L 19.136719 7.925781 L 19.042969 7.734375 L 18.9375 7.535156 L 18.785156 7.289062 L 18.691406 7.148438 L 18.574219 6.980469 L 18.445312 6.828125 L 18.316406 6.6875 L 18.0625 6.429688 L 17.933594 6.320312 L 17.816406 6.226562 L 17.664062 6.121094 L 17.429688 5.980469 L 17.148438 5.828125 L 16.878906 5.710938 L 16.597656 5.613281 L 16.246094 5.53125 L 15.929688 5.484375 L 15.800781 5.472656 L 15.414062 5.472656 L 15.050781 5.554688 L 14.628906 5.695312 L 14.335938 5.816406 L 14.042969 5.957031 L 13.761719 6.109375 L 13.457031 6.296875 L 13.128906 6.523438 L 12.953125 6.652344 L 12.859375 6.722656 L 12.847656 6.734375 L 12.847656 6.839844 L 12.859375 6.910156 L 12.859375 7.003906 L 12.800781 7.148438 L 12.71875 7.289062 L 12.625 7.40625 L 12.542969 7.488281 L 12.332031 7.582031 L 12.203125 7.617188 L 12.039062 7.617188 L 11.875 7.582031 L 11.710938 7.5 L 11.617188 7.417969 L 11.5 7.265625 L 11.441406 7.136719 L 11.40625 7.027344 L 11.394531 6.910156 L 11.394531 6.792969 L 11.441406 6.605469 L 11.511719 6.476562 L 11.640625 6.332031 L 11.699219 6.285156 L 11.863281 6.203125 L 11.992188 6.167969 L 12.226562 6.167969 L 12.390625 6.214844 L 12.460938 6.191406 L 12.613281 6.074219 L 12.824219 5.910156 L 13.128906 5.710938 L 13.457031 5.507812 L 13.773438 5.34375 L 14.054688 5.214844 L 14.441406 5.0625 L 14.828125 4.929688 L 15.203125 4.835938 L 15.484375 4.777344 L 15.53125 4.753906 L 15.4375 4.683594 L 15.25 4.578125 L 15.097656 4.484375 L 14.710938 4.28125 L 14.382812 4.128906 L 14.03125 4 L 13.597656 3.871094 L 13.328125 3.8125 L 12.941406 3.765625 L 12.695312 3.753906 Z M 5.59375 3.988281 L 5.488281 4.058594 L 5.300781 4.234375 L 5.195312 4.316406 L 5.019531 4.484375 L 4.890625 4.589844 L 4.421875 5.0625 L 4.339844 5.15625 L 4.234375 5.273438 L 4.105469 5.425781 L 3.941406 5.625 L 3.789062 5.839844 L 3.660156 6.027344 L 3.496094 6.273438 L 3.355469 6.511719 L 3.191406 6.804688 L 3.050781 7.078125 L 2.910156 7.371094 L 2.78125 7.6875 L 2.640625 8.101562 L 2.523438 8.527344 L 2.441406 8.972656 L 2.394531 9.351562 L 2.382812 9.480469 L 2.382812 10.011719 L 2.417969 10.292969 L 2.488281 10.683594 L 2.570312 11.011719 L 2.722656 11.460938 L 2.863281 11.8125 L 2.980469 12.074219 L 3.109375 12.273438 L 3.132812 12.285156 L 3.121094 12.132812 L 3.074219 11.707031 L 3.074219 11.046875 L 3.097656 10.765625 L 3.144531 10.46875 L 3.203125 10.1875 L 3.320312 9.761719 L 3.472656 9.363281 L 3.613281 9.042969 L 3.707031 8.855469 L 3.871094 8.539062 L 4.011719 8.3125 L 4.152344 8.101562 L 4.292969 7.902344 L 4.410156 7.757812 L 4.515625 7.628906 L 4.632812 7.488281 L 4.65625 7.429688 L 4.667969 7.324219 L 4.65625 7.027344 L 4.679688 6.722656 L 4.75 6.238281 L 4.84375 5.804688 L 4.914062 5.53125 L 5.042969 5.144531 L 5.171875 4.824219 L 5.300781 4.554688 L 5.429688 4.332031 L 5.535156 4.164062 L 5.605469 4.035156 Z M 18.003906 5.53125 L 18.027344 5.578125 L 18.199219 5.710938 L 18.351562 5.828125 L 18.515625 5.96875 L 18.609375 6.050781 L 18.867188 6.308594 L 18.949219 6.40625 L 19.042969 6.523438 L 19.148438 6.664062 L 19.289062 6.863281 L 19.40625 7.039062 L 19.570312 7.324219 L 19.675781 7.523438 L 19.804688 7.808594 L 19.945312 8.171875 L 20.074219 8.5625 L 20.203125 9.078125 L 20.273438 9.480469 L 20.308594 9.761719 L 20.308594 9.929688 L 20.34375 10.046875 L 20.449219 10.164062 L 20.578125 10.28125 L 20.660156 10.375 L 20.8125 10.554688 L 20.941406 10.707031 L 21.117188 10.941406 L 21.28125 11.1875 L 21.386719 11.367188 L 21.527344 11.613281 L 21.65625 11.859375 L 21.796875 12.191406 L 21.914062 12.519531 L 22.042969 12.992188 L 22.113281 13.144531 L 22.125 13.144531 L 22.148438 12.933594 L 22.160156 12.792969 L 22.183594 12.074219 L 22.183594 11.683594 L 22.148438 11.164062 L 22.089844 10.695312 L 22.007812 10.210938 L 21.890625 9.703125 L 21.761719 9.269531 L 21.621094 8.878906 L 21.492188 8.574219 L 21.351562 8.277344 L 21.222656 8.019531 L 21.046875 7.722656 L 20.90625 7.511719 L 20.789062 7.347656 L 20.636719 7.160156 L 20.53125 7.027344 L 20.34375 6.828125 L 20.167969 6.664062 L 20.074219 6.582031 L 19.945312 6.476562 L 19.710938 6.296875 L 19.453125 6.132812 L 19.277344 6.027344 L 19.089844 5.921875 L 18.832031 5.792969 L 18.410156 5.625 L 18.140625 5.554688 Z M 1.796875 10.8125 L 1.773438 10.941406 L 1.75 11.308594 L 1.726562 11.921875 L 1.726562 12.273438 L 1.75 12.664062 L 1.796875 13.109375 L 1.867188 13.546875 L 1.949219 13.972656 L 2.042969 14.335938 L 2.148438 14.679688 L 2.265625 15.019531 L 2.429688 15.421875 L 2.558594 15.703125 L 2.699219 15.960938 L 2.804688 16.152344 L 2.921875 16.339844 L 3.074219 16.550781 L 3.226562 16.742188 L 3.332031 16.871094 L 3.460938 17.011719 L 3.566406 17.128906 L 3.742188 17.304688 L 3.835938 17.390625 L 3.953125 17.496094 L 4.058594 17.578125 L 4.269531 17.730469 L 4.5625 17.917969 L 4.832031 18.058594 L 4.996094 18.144531 L 5.335938 18.285156 L 5.628906 18.402344 L 5.78125 18.449219 L 5.910156 18.496094 L 5.898438 18.449219 L 5.804688 18.355469 L 5.617188 18.226562 L 5.453125 18.085938 L 5.101562 17.730469 L 5.019531 17.636719 L 4.914062 17.519531 L 4.820312 17.402344 L 4.691406 17.222656 L 4.574219 17.046875 L 4.433594 16.824219 L 4.257812 16.492188 L 4.105469 16.164062 L 3.976562 15.820312 L 3.871094 15.503906 L 3.777344 15.160156 L 3.683594 14.738281 L 3.613281 14.265625 L 3.601562 14.007812 L 3.554688 13.910156 L 3.4375 13.78125 L 3.34375 13.699219 L 3.226562 13.570312 L 3.121094 13.441406 L 2.980469 13.277344 L 2.828125 13.0625 L 2.617188 12.746094 L 2.453125 12.472656 L 2.347656 12.285156 L 2.183594 11.945312 L 2.066406 11.636719 L 1.949219 11.273438 L 1.84375 10.882812 L 1.808594 10.8125 Z M 20.765625 11.707031 L 20.777344 11.800781 L 20.824219 12.027344 L 20.847656 12.261719 L 20.847656 12.921875 L 20.800781 13.347656 L 20.742188 13.652344 L 20.636719 14.066406 L 20.496094 14.488281 L 20.367188 14.796875 L 20.203125 15.148438 L 20.015625 15.492188 L 19.898438 15.691406 L 19.804688 15.820312 L 19.6875 15.996094 L 19.59375 16.128906 L 19.488281 16.257812 L 19.382812 16.375 L 19.300781 16.480469 L 19.265625 16.5625 L 19.253906 16.644531 L 19.265625 16.765625 L 19.242188 17.1875 L 19.207031 17.519531 L 19.148438 17.847656 L 19.042969 18.308594 L 18.9375 18.671875 L 18.785156 19.074219 L 18.644531 19.378906 L 18.515625 19.628906 L 18.386719 19.839844 L 18.328125 19.945312 L 18.339844 19.980469 L 18.457031 19.910156 L 18.632812 19.757812 L 18.808594 19.59375 L 18.949219 19.464844 L 19.125 19.285156 L 19.21875 19.203125 L 19.40625 19.015625 L 19.488281 18.921875 L 19.605469 18.804688 L 19.710938 18.671875 L 19.863281 18.507812 L 19.957031 18.378906 L 20.0625 18.238281 L 20.203125 18.035156 L 20.320312 17.871094 L 20.425781 17.707031 L 20.578125 17.460938 L 20.742188 17.164062 L 20.917969 16.824219 L 21.09375 16.421875 L 21.234375 16.023438 L 21.339844 15.65625 L 21.410156 15.375 L 21.480469 14.949219 L 21.527344 14.558594 L 21.527344 13.949219 L 21.492188 13.628906 L 21.433594 13.300781 L 21.339844 12.921875 L 21.199219 12.496094 L 21.046875 12.121094 L 20.90625 11.847656 L 20.824219 11.742188 L 20.789062 11.707031 Z M 18.398438 18.058594 L 18.292969 18.179688 L 18.210938 18.273438 L 18.09375 18.425781 L 17.96875 18.578125 L 17.839844 18.71875 L 17.710938 18.851562 L 17.617188 18.933594 L 17.429688 19.085938 L 17.3125 19.167969 L 17.148438 19.285156 L 17.019531 19.367188 L 16.785156 19.511719 L 16.574219 19.628906 L 16.316406 19.757812 L 15.871094 19.945312 L 15.449219 20.085938 L 14.980469 20.21875 L 14.605469 20.289062 L 14.160156 20.347656 L 13.972656 20.371094 L 13.878906 20.417969 L 13.597656 20.699219 L 13.503906 20.78125 L 13.351562 20.914062 L 13.117188 21.089844 L 12.917969 21.230469 L 12.695312 21.371094 L 12.484375 21.5 L 12.25 21.632812 L 11.886719 21.796875 L 11.441406 21.960938 L 11.019531 22.101562 L 10.808594 22.160156 L 10.796875 22.183594 L 10.820312 22.199219 L 11.007812 22.210938 L 11.5 22.222656 L 12.34375 22.222656 L 12.765625 22.199219 L 13.199219 22.148438 L 13.714844 22.066406 L 14.042969 21.996094 L 14.546875 21.855469 L 14.96875 21.714844 L 15.332031 21.5625 L 15.789062 21.335938 L 16.070312 21.171875 L 16.304688 21.03125 L 16.492188 20.902344 L 16.632812 20.792969 L 16.785156 20.675781 L 16.914062 20.570312 L 17.054688 20.441406 L 17.136719 20.371094 L 17.136719 20.347656 L 17.171875 20.335938 L 17.253906 20.242188 L 17.335938 20.160156 L 17.417969 20.0625 L 17.511719 19.945312 L 17.664062 19.746094 L 17.851562 19.464844 L 18.003906 19.191406 L 18.128906 18.933594 L 18.28125 18.542969 L 18.375 18.285156 L 18.410156 18.15625 L 18.410156 18.058594 Z M 3.964844 18.34375 L 3.988281 18.402344 L 4.117188 18.566406 L 4.246094 18.707031 L 4.328125 18.804688 L 4.480469 18.957031 L 4.5625 19.050781 L 4.984375 19.476562 L 5.078125 19.558594 L 5.253906 19.710938 L 5.441406 19.863281 L 5.59375 19.980469 L 5.769531 20.109375 L 5.96875 20.253906 L 6.320312 20.488281 L 6.566406 20.628906 L 6.835938 20.78125 L 7.246094 20.984375 L 7.492188 21.089844 L 7.761719 21.195312 L 8.125 21.3125 L 8.6875 21.453125 L 9.0625 21.515625 L 9.425781 21.550781 L 9.648438 21.5625 L 9.917969 21.5625 L 10.269531 21.539062 L 10.5625 21.488281 L 10.890625 21.417969 L 11.3125 21.300781 L 11.5 21.230469 L 12.144531 20.9375 L 12.226562 20.878906 L 12.226562 20.855469 L 12.015625 20.867188 L 11.78125 20.890625 L 11.230469 20.890625 L 10.773438 20.855469 L 10.339844 20.792969 L 9.976562 20.710938 L 9.707031 20.628906 L 9.390625 20.511719 L 9.085938 20.382812 L 8.722656 20.207031 L 8.464844 20.0625 L 8.265625 19.945312 L 7.972656 19.746094 L 7.773438 19.59375 L 7.46875 19.332031 L 7.386719 19.296875 L 6.765625 19.273438 L 6.378906 19.226562 L 6.003906 19.167969 L 5.699219 19.097656 L 5.371094 19.003906 L 5.007812 18.875 L 4.714844 18.742188 L 4.457031 18.613281 L 4.269531 18.507812 L 4.09375 18.402344 L 3.988281 18.34375 Z M 3.964844 18.34375 " />
        <path
            d="M 12.050781 11.355469 L 12.25 11.355469 L 12.425781 11.390625 L 12.566406 11.449219 L 12.671875 11.523438 L 12.765625 11.605469 L 12.871094 11.757812 L 12.929688 11.898438 L 12.964844 12.0625 L 12.964844 12.242188 L 12.917969 12.429688 L 12.835938 12.582031 L 12.707031 12.734375 L 12.578125 12.832031 L 12.390625 12.914062 L 12.203125 12.949219 L 11.980469 12.925781 L 11.839844 12.878906 L 11.703125 12.792969 L 11.585938 12.6875 L 11.503906 12.570312 L 11.421875 12.40625 L 11.386719 12.277344 L 11.386719 12.015625 L 11.421875 11.875 L 11.515625 11.6875 L 11.644531 11.546875 L 11.757812 11.464844 L 11.875 11.402344 Z M 12.050781 11.355469 " />
    </g>
    <g class="sprite sun-and-moon" id="theme-toggle-icon">
        <circle class="sun" cx="12" cy="12" fill="currentColor" mask="url(#moon-mask)" r="6" />
        <g class="sun-beams" stroke="currentColor">
            <line x1="12" x2="12" y1="1" y2="3" />
            <line x1="12" x2="12" y1="21" y2="23" />
            <line x1="4.22" x2="5.64" y1="4.22" y2="5.64" />
            <line x1="18.36" x2="19.78" y1="18.36" y2="19.78" />
            <line x1="1" x2="3" y1="12" y2="12" />
            <line x1="21" x2="23" y1="12" y2="12" />
            <line x1="4.22" x2="5.64" y1="19.78" y2="18.36" />
            <line x1="18.36" x2="19.78" y1="5.64" y2="4.22" />
        </g>
    </g>
</svg>